<svg width="423" height="298" viewBox="0 0 423 298" fill="none" xmlns="http://www.w3.org/2000/svg">
<path d="M48.4 68H8.848L0.4 56.48V12.32L8.848 0.799995H48.4L56.848 12.32V56.48L48.4 68ZM17.872 16.352V52.448H39.376V16.352H17.872ZM87.9228 68H61.6188V56.48L66.5148 53.792V15.008L61.6188 12.32V0.799995H81.9708L106.931 39.296V15.008L102.035 12.32V0.799995H128.339V12.32L123.443 15.008V68H107.123L83.0268 30.944V53.792L87.9228 56.48V68ZM189.982 68H133.15V56.48L138.046 53.792V15.008L133.15 12.32V0.799995H189.982V21.44H178.462L175.678 16.16H155.134V26.72H176.062V37.856L168.19 42.08H155.134V52.64H175.678L178.462 47.36H189.982V68ZM48.304 183H8.848L0.4 171.48V162.36H17.68V167.448H39.76V157.368H8.848L0.4 145.848V127.32L8.848 115.8H48.304L56.752 127.32V136.44H39.472V131.352H17.392V141.432H48.304L56.752 152.952V171.48L48.304 183ZM118.357 183H61.525V171.48L66.421 168.792V130.008L61.525 127.32V115.8H118.357V136.44H106.837L104.053 131.16H83.509V141.72H104.437V152.856L96.565 157.08H83.509V167.64H104.053L106.837 162.36H118.357V183ZM149.999 183H123.119V171.48L128.015 168.792V130.008L123.119 127.32V115.8H176.207L184.655 127.32V149.976L175.631 156.696L179.471 168.216L185.423 171.48V183H158.639V171.48L162.191 169.56L158.735 158.424H145.103V168.792L149.999 171.48V183ZM145.103 131.16V143.736H167.279V131.16H145.103ZM235.364 183H211.94L195.14 130.008L190.244 127.32V115.8H217.22V127.32L213.284 129.528L223.652 165.144L234.02 129.528L230.084 127.32V115.8H257.06V127.32L252.164 130.008L235.364 183ZM288.749 183H261.869V171.48L266.765 168.792V130.008L261.869 127.32V115.8H288.749V127.32L283.853 130.008V168.792L288.749 171.48V183ZM319.86 183H293.556V171.48L298.452 168.792V130.008L293.556 127.32V115.8H313.908L338.868 154.296V130.008L333.972 127.32V115.8H360.276V127.32L355.38 130.008V183H339.06L314.964 145.944V168.792L319.86 171.48V183ZM414.048 183H373.536L365.088 171.48V127.32L373.536 115.8H414.048L422.496 127.32V139.992H404.832V131.544H382.56V167.256H405.408V160.92L399.552 157.848V146.328H422.496V171.48L414.048 183ZM26.8 298H0.4V286.48L5.296 283.792L22 230.8H46.384L63.088 283.792L67.984 286.48V298H41.584V286.48L45.712 284.176L44.464 279.76H23.92L22.672 284.176L26.8 286.48V298ZM33.424 246.352L28.048 265.168H40.336L34.96 246.352H33.424ZM127.015 298H72.775V286.48L77.671 283.792V245.008L72.775 242.32V230.8H99.847V242.32L94.951 245.008V282.448H112.807L115.495 277.36H127.015V298ZM186.078 298H131.838V286.48L136.734 283.792V245.008L131.838 242.32V230.8H158.91V242.32L154.014 245.008V282.448H171.87L174.558 277.36H186.078V298Z" fill="white"/>
</svg>
